<svg width="34" height="34" viewBox="0 0 34 34" fill="none" xmlns="http://www.w3.org/2000/svg">
<path d="M17 3.66665V0.333313H33.6667V3.66665H17ZM17 10.3333V6.99998H33.6667V10.3333H17ZM17 17V13.6666H33.6667V17H17ZM28.5834 33.6666C25.1112 33.6666 21.6806 32.9097 18.2917 31.3958C14.9028 29.8819 11.8195 27.7361 9.04171 24.9583C6.26393 22.1805 4.1181 19.0972 2.60421 15.7083C1.09032 12.3194 0.333374 8.88887 0.333374 5.41665C0.333374 4.91665 0.500041 4.49998 0.833374 4.16665C1.16671 3.83331 1.58337 3.66665 2.08337 3.66665H8.83337C9.22226 3.66665 9.56948 3.79859 9.87504 4.06248C10.1806 4.32637 10.3612 4.63887 10.4167 4.99998L11.5 10.8333C11.5556 11.2778 11.5417 11.6528 11.4584 11.9583C11.375 12.2639 11.2223 12.5278 11 12.75L6.95837 16.8333C7.51393 17.8611 8.17365 18.8541 8.93754 19.8125C9.70143 20.7708 10.5417 21.6944 11.4584 22.5833C12.3195 23.4444 13.2223 24.243 14.1667 24.9791C15.1112 25.7153 16.1112 26.3889 17.1667 27L21.0834 23.0833C21.3334 22.8333 21.6598 22.6458 22.0625 22.5208C22.4653 22.3958 22.8612 22.3611 23.25 22.4166L29 23.5833C29.3889 23.6944 29.7084 23.8958 29.9584 24.1875C30.2084 24.4791 30.3334 24.8055 30.3334 25.1666V31.9166C30.3334 32.4166 30.1667 32.8333 29.8334 33.1666C29.5 33.5 29.0834 33.6666 28.5834 33.6666ZM5.37504 13.6666L8.12504 10.9166L7.41671 6.99998H3.70837C3.84726 8.13887 4.04171 9.26387 4.29171 10.375C4.54171 11.4861 4.90282 12.5833 5.37504 13.6666ZM20.2917 28.5833C21.375 29.0555 22.4792 29.4305 23.6042 29.7083C24.7292 29.9861 25.8612 30.1666 27 30.25V26.5833L23.0834 25.7916L20.2917 28.5833Z" fill="#696969"/>
</svg>
