<svg width="28" height="34" viewBox="0 0 28 34" fill="none" xmlns="http://www.w3.org/2000/svg">
<path d="M7.33329 27H20.6666V23.6666H7.33329V27ZM7.33329 20.3333H20.6666V17H7.33329V20.3333ZM3.99996 33.6666C3.08329 33.6666 2.29857 33.3403 1.64579 32.6875C0.993015 32.0347 0.666626 31.25 0.666626 30.3333V3.66665C0.666626 2.74998 0.993015 1.96526 1.64579 1.31248C2.29857 0.659702 3.08329 0.333313 3.99996 0.333313H17.3333L27.3333 10.3333V30.3333C27.3333 31.25 27.0069 32.0347 26.3541 32.6875C25.7013 33.3403 24.9166 33.6666 24 33.6666H3.99996ZM15.6666 12V3.66665H3.99996V30.3333H24V12H15.6666Z" fill="#696969"/>
</svg>
