<svg width="35" height="35" viewBox="0 0 35 35" fill="none" xmlns="http://www.w3.org/2000/svg">
<path d="M15.7916 26.0417H19.2083V19.2084H26.0416V15.7917H19.2083V8.95835H15.7916V15.7917H8.95829V19.2084H15.7916V26.0417ZM17.5 34.5834C15.1368 34.5834 12.9159 34.1349 10.8375 33.238C8.75899 32.3412 6.951 31.124 5.4135 29.5865C3.876 28.049 2.65881 26.241 1.76194 24.1625C0.865063 22.084 0.416626 19.8632 0.416626 17.5C0.416626 15.1368 0.865063 12.916 1.76194 10.8375C2.65881 8.75905 3.876 6.95106 5.4135 5.41356C6.951 3.87606 8.75899 2.65887 10.8375 1.762C12.9159 0.865124 15.1368 0.416687 17.5 0.416687C19.8632 0.416687 22.084 0.865124 24.1625 1.762C26.2409 2.65887 28.0489 3.87606 29.5864 5.41356C31.1239 6.95106 32.3411 8.75905 33.238 10.8375C34.1349 12.916 34.5833 15.1368 34.5833 17.5C34.5833 19.8632 34.1349 22.084 33.238 24.1625C32.3411 26.241 31.1239 28.049 29.5864 29.5865C28.0489 31.124 26.2409 32.3412 24.1625 33.238C22.084 34.1349 19.8632 34.5834 17.5 34.5834ZM17.5 31.1667C21.3152 31.1667 24.5468 29.8427 27.1948 27.1948C29.8427 24.5469 31.1666 21.3153 31.1666 17.5C31.1666 13.6847 29.8427 10.4531 27.1948 7.80523C24.5468 5.15731 21.3152 3.83335 17.5 3.83335C13.6847 3.83335 10.4531 5.15731 7.80517 7.80523C5.15725 10.4531 3.83329 13.6847 3.83329 17.5C3.83329 21.3153 5.15725 24.5469 7.80517 27.1948C10.4531 29.8427 13.6847 31.1667 17.5 31.1667Z" fill="#696969"/>
</svg>
